:SAMPLES-PER-SECOND 30
:FULLY-SPECIFIED
:DEGREES
525
root  -36.8101 39.2301 14.1274 -8.33319 7.22597 -0.561951
RightUpLeg  -10.4439 1.83647 -9.92784
RightLeg  53.0603 -1.54663 -2.58184
RightFoot  3.35961 -1.00893 8.00875
RightToes  2.32829e-010 0 -3.6325e-017
Spine  8.30846 -1.13339 -5.91303
Spine1  7.82857 -1.50387 -3.82665
HEad  54.4441 -40.4912 -128.845
LeftShoulder1  0.386515 2.41557 -29.402
LeftArm  7.17405 -13.365 -52.926
LeftForeArm  28.8915 -8.04213 -11.4813
LeftHand  -0.0289722 5.37314 0.208525
RightShoulder  -0.369835 -4.63219 25.7495
RightArm  21.6741 -3.23622 51.4748
RightForeArm  0.84422 19.3146 5.2913
RightHand  -0.385063 3.77618 -5.13516
LeftUpLeg  -0.107239 3.96603 -10.8058
LeftLeg  17.4721 6.73624 1.58761
LeftFoot  -7.87789 -0.46523 16.8307
LeftToes  -3.54706e-010 1.16038e-010 5.28031e-012
526
root  -36.9433 39.3454 14.872 -8.25037 12.697 -1.21729
RightUpLeg  -11.1758 4.0179 -9.61306
RightLeg  46.1549 -2.57085 -3.19331
RightFoot  1.42963 -0.967713 8.71267
RightToes  2.32829e-010 0 -3.6325e-017
Spine  8.6957 -1.44091 -6.49659
Spine1  7.52091 -2.18701 -2.15976
HEad  59.0341 -37.1599 -132.858
LeftShoulder1  0.391173 2.40113 -29.4046
LeftArm  15.0547 -15.4254 -56.0229
LeftForeArm  23.1635 -11.9962 -10.716
LeftHand  -0.0274673 4.80658 0.369819
RightShoulder  -0.337908 -4.54634 25.3347
RightArm  20.4575 -2.79447 50.6843
RightForeArm  1.7286 19.0209 5.25361
RightHand  -0.431694 3.62675 -5.80683
LeftUpLeg  1.56375 3.32281 -10.1352
LeftLeg  17.0516 1.82401 0.846489
LeftFoot  -8.38106 -0.38877 16.8783
LeftToes  -3.54706e-010 1.16038e-010 5.28031e-012
527
root  -37.0534 39.422 15.62 -8.03247 17.6865 -1.74371
RightUpLeg  -11.8728 6.27811 -9.61694
RightLeg  38.7547 -2.99467 -2.82421
RightFoot  0.49088 -0.892922 8.63193
RightToes  2.32829e-010 0 -3.6325e-017
Spine  8.76065 -1.65034 -6.0357
Spine1  7.36571 -2.28855 -2.07748
HEad  62.4802 -33.0922 -135.713
LeftShoulder1  0.494227 2.08923 -28.7993
LeftArm  23.6219 -16.2868 -59.0759
LeftForeArm  15.5179 -16.6029 -8.3876
LeftHand  -0.0386434 4.0335 1.33188
RightShoulder  -0.341969 -4.56318 25.2099
RightArm  19.2588 -2.23723 49.8603
RightForeArm  2.06505 17.7947 5.50022
RightHand  -0.448165 3.8021 -5.91048
LeftUpLeg  2.82998 2.77065 -9.41227
LeftLeg  16.835 -2.6843 0.166597
LeftFoot  -8.91759 -0.3136 17.2457
LeftToes  -3.54706e-010 1.16038e-010 5.28031e-012
528
root  -37.1285 39.5029 16.3919 -7.64795 22.3689 -2.10406
RightUpLeg  -12.4072 7.81482 -9.9896
RightLeg  31.1273 -2.72847 -2.04834
RightFoot  -0.00179504 -0.84613 8.50938
RightToes  2.32829e-010 0 -3.6325e-017
Spine  8.55252 -1.70545 -6.1598
Spine1  7.43605 -2.48347 -1.00162
HEad  66.3705 -29.596 -138.619
LeftShoulder1  0.509564 2.05878 -29.1564
LeftArm  30.8417 -16.6506 -60.9778
LeftForeArm  8.63429 -21.0646 -5.64069
LeftHand  -0.069885 3.0493 2.89269
RightShoulder  -0.323325 -4.51472 24.8794
RightArm  17.7954 -1.59189 48.9745
RightForeArm  3.72855 16.2332 5.77829
RightHand  -0.349203 3.27492 -4.91969
LeftUpLeg  3.93923 2.53286 -8.51631
LeftLeg  16.5579 -7.39617 -0.744234
LeftFoot  -9.50128 -0.229012 17.6618
LeftToes  -3.54706e-010 1.16038e-010 5.28031e-012
529
root  -37.1466 39.5311 17.1654 -7.02716 26.3579 -1.97943
RightUpLeg  -12.8508 8.20225 -10.9416
RightLeg  23.2807 -0.517851 -0.368675
RightFoot  -0.0202808 -0.896618 9.02053
RightToes  2.32829e-010 0 -3.6325e-017
Spine  8.0876 -1.87956 -5.24941
Spine1  7.72616 -2.22446 -2.03307
HEad  68.3584 -25.8865 -140.136
LeftShoulder1  0.525533 1.98298 -28.4239
LeftArm  30.4895 -16.0872 -62.2892
LeftForeArm  9.95354 -24.8424 -4.63027
LeftHand  -0.0633473 1.77185 1.67458
RightShoulder  -0.310973 -4.46953 25.051
RightArm  15.6234 -0.926232 48.3528
RightForeArm  6.47107 14.1266 6.10478
RightHand  -0.296519 3.22254 -4.25059
LeftUpLeg  4.88785 2.36206 -8.0358
LeftLeg  16.2495 -10.6293 -1.22606
LeftFoot  -10.2785 -0.100804 17.4428
LeftToes  -3.54706e-010 1.16038e-010 5.28031e-012
530
root  -37.1245 39.5336 17.9702 -6.52832 29.9778 -1.85156
RightUpLeg  -12.6966 6.69921 -11.1638
RightLeg  15.3309 2.71803 0.150541
RightFoot  0.294681 -1.09505 10.7369
RightToes  2.32829e-010 0 -3.6325e-017
Spine  8.11452 -1.73665 -4.37633
Spine1  7.46607 -1.8347 -2.35893
HEad  70.8615 -21.7826 -142.431
LeftShoulder1  0.540563 1.9497 -28.6619
LeftArm  28.3264 -15.2705 -62.1645
LeftForeArm  14.0045 -28.3241 -5.36186
LeftHand  0.00122178 1.6573 -0.324797
RightShoulder  -0.365117 -4.63985 25.124
RightArm  14.786 -0.933703 47.556
RightForeArm  5.17825 12.7127 6.46626
RightHand  -0.331157 2.27832 -5.16869
LeftUpLeg  5.91443 2.34761 -7.29989
LeftLeg  16.0761 -14.2656 -2.00631
LeftFoot  -10.9679 0.009172 17.4407
LeftToes  -3.54706e-010 1.16038e-010 5.28031e-012
531
root  -37.0665 39.5184 18.8016 -5.97314 33.0747 -1.81671
RightUpLeg  -12.0736 -0.715515 -9.53989
RightLeg  7.22326 10.6042 -1.18906
RightFoot  0.0944773 -1.32418 13.1867
RightToes  2.32829e-010 0 -3.6325e-017
Spine  7.72478 -1.58448 -3.43527
Spine1  7.66846 -1.5026 -2.34701
HEad  72.4339 -18.4076 -144.28
LeftShoulder1  0.528677 1.99947 -29.0295
LeftArm  26.3525 -14.2128 -61.3557
LeftForeArm  15.6205 -30.9635 -5.90557
LeftHand  -0.0293368 1.21226 0.652386
RightShoulder  -0.35814 -4.62288 24.9732
RightArm  12.736 -0.925555 47.1261
RightForeArm  7.35711 11.2631 6.32834
RightHand  -0.238556 2.34488 -3.90256
LeftUpLeg  6.72741 1.77489 -6.54178
LeftLeg  16.1026 -16.9694 -2.56611
LeftFoot  -11.939 0.162192 17.2235
LeftToes  -3.54706e-010 1.16038e-010 5.28031e-012
532
root  -36.983 39.4704 19.6731 -5.82434 35.9556 -1.84302
RightUpLeg  -11.2512 -7.16624 -7.85285
RightLeg  0.868712 17.7224 -2.65501
RightFoot  -1.06829 -1.28664 14.1458
RightToes  2.32829e-010 0 -3.6325e-017
Spine  7.78723 -1.49203 -2.46889
Spine1  7.8324 -1.30518 -2.25717
HEad  73.3765 -14.917 -146.109
LeftShoulder1  0.512093 2.05665 -29.2705
LeftArm  25.1281 -12.8691 -59.6998
LeftForeArm  16.4655 -33.1787 -6.40853
LeftHand  -0.0742988 1.39015 1.96002
RightShoulder  -0.357866 -4.62227 24.9446
RightArm  10.8756 -1.10638 46.9827
RightForeArm  7.89016 9.99047 6.09601
RightHand  -0.24995 4.34276 -3.31264
LeftUpLeg  7.85793 0.312281 -5.93352
LeftLeg  16.2762 -18.5504 -2.80647
LeftFoot  -13.1575 0.346158 16.6718
LeftToes  -3.54706e-010 1.16038e-010 5.28031e-012
533
root  -36.8635 39.3577 20.5954 -5.54315 38.5628 -1.60541
RightUpLeg  -11.1113 -7.6836 -7.59978
RightLeg  -0.733555 20.1653 -2.42301
RightFoot  -2.4397 -1.09347 13.7643
RightToes  2.32829e-010 0 -3.6325e-017
Spine  7.84189 -1.5028 -1.7346
Spine1  7.86736 -1.24218 -2.26564
HEad  73.9748 -12.0657 -147.598
LeftShoulder1  0.47729 2.13691 -28.794
LeftArm  23.9234 -11.4822 -58.3162
LeftForeArm  16.1883 -33.0104 -6.3839
LeftHand  -0.101717 1.24887 2.70986
RightShoulder  -0.423458 -4.81699 25.3276
RightArm  10.5648 -0.907501 46.7126
RightForeArm  7.08752 9.06314 6.17609
RightHand  -0.410757 2.43965 -6.24176
LeftUpLeg  8.8739 -2.31592 -5.88933
LeftLeg  16.7713 -18.3269 -2.86392
LeftFoot  -14.5165 0.54642 16.4285
LeftToes  -3.54706e-010 1.16038e-010 5.28031e-012
534
root  -36.7276 39.2625 21.5553 -5.43414 40.529 -1.52386
RightUpLeg  -11.4641 -7.18281 -6.81343
RightLeg  1.59362 22.5612 -1.77545
RightFoot  0.785956 -1.36675 12.9464
RightToes  2.32829e-010 0 -3.6325e-017
Spine  7.33513 -1.49705 -0.677776
Spine1  8.70644 -1.12324 -2.34835
HEad  74.5453 -9.57738 -148.954
LeftShoulder1  0.453749 2.19623 -28.5748
LeftArm  22.8942 -10.3622 -56.1543
LeftForeArm  15.6051 -31.2635 -5.97332
LeftHand  -0.0897051 1.2896 2.37266
RightShoulder  -0.351254 -4.59945 25.0191
RightArm  9.62117 -1.04029 47.517
RightForeArm  7.15864 8.43279 5.95295
RightHand  -0.363423 2.41906 -5.60971
LeftUpLeg  10.2787 -5.50896 -5.89732
LeftLeg  16.692 -16.9561 -2.66547
LeftFoot  -15.7036 0.710647 16.05
LeftToes  -3.54706e-010 1.16038e-010 5.28031e-012
